<svg width="28" height="28" viewBox="0 0 28 28" fill="none" xmlns="http://www.w3.org/2000/svg">
	<style>
		.hover{opacity:0;}
		
		
	</style>
	<g class="default">
<g clip-path="url(#clip0)">
<path d="M23.52 12.9138C23.6994 12.4456 23.8 11.9338 23.8 11.4C23.8 9.08125 21.9187 7.2 19.6 7.2C18.7381 7.2 17.9331 7.4625 17.2681 7.90875C16.0562 5.80875 13.7944 4.4 11.2 4.4C7.3325 4.4 4.2 7.5325 4.2 11.4C4.2 11.5181 4.20437 11.6363 4.20875 11.7544C1.75875 12.6163 0 14.9525 0 17.7C0 21.1781 2.82187 24 6.3 24H22.4C25.4931 24 28 21.4931 28 18.4C28 15.6919 26.075 13.43 23.52 12.9138ZM17.7056 16.7944L13.0944 21.4056C12.8231 21.6769 12.3769 21.6769 12.1056 21.4056L7.49438 16.7944C7.0525 16.3525 7.3675 15.6 7.98875 15.6H10.85V10.7C10.85 10.315 11.165 10 11.55 10H13.65C14.035 10 14.35 10.315 14.35 10.7V15.6H17.2113C17.8325 15.6 18.1475 16.3525 17.7056 16.7944Z" fill="#878D96"/>
<mask id="mask0" mask-type="alpha" maskUnits="userSpaceOnUse" x="-4" y="0" width="32" height="32">
<path d="M28 32L-4 0H28V32Z" fill="#C4C4C4"/>
</mask>
<g mask="url(#mask0)">
<path d="M23.52 12.9138C23.6994 12.4456 23.8 11.9338 23.8 11.4C23.8 9.08125 21.9187 7.2 19.6 7.2C18.7381 7.2 17.9331 7.4625 17.2681 7.90875C16.0562 5.80875 13.7944 4.4 11.2 4.4C7.3325 4.4 4.2 7.5325 4.2 11.4C4.2 11.5181 4.20437 11.6363 4.20875 11.7544C1.75875 12.6163 0 14.9525 0 17.7C0 21.1781 2.82187 24 6.3 24H22.4C25.4931 24 28 21.4931 28 18.4C28 15.6919 26.075 13.43 23.52 12.9138ZM17.7056 16.7944L13.0944 21.4056C12.8231 21.6769 12.3769 21.6769 12.1056 21.4056L7.49438 16.7944C7.0525 16.3525 7.3675 15.6 7.98875 15.6H10.85V10.7C10.85 10.315 11.165 10 11.55 10H13.65C14.035 10 14.35 10.315 14.35 10.7V15.6H17.2113C17.8325 15.6 18.1475 16.3525 17.7056 16.7944Z" fill="#9FA4AB"/>
</g>
</g>
</g>
<g class="hover">
<g clip-path="url(#clip1)">
<path d="M23.52 12.9138C23.6994 12.4456 23.8 11.9338 23.8 11.4C23.8 9.08125 21.9187 7.2 19.6 7.2C18.7381 7.2 17.9331 7.4625 17.2681 7.90875C16.0562 5.80875 13.7944 4.4 11.2 4.4C7.3325 4.4 4.2 7.5325 4.2 11.4C4.2 11.5181 4.20437 11.6363 4.20875 11.7544C1.75875 12.6163 0 14.9525 0 17.7C0 21.1781 2.82187 24 6.3 24H22.4C25.4931 24 28 21.4931 28 18.4C28 15.6919 26.075 13.43 23.52 12.9138ZM17.7056 16.7944L13.0944 21.4056C12.8231 21.6769 12.3769 21.6769 12.1056 21.4056L7.49438 16.7944C7.0525 16.3525 7.3675 15.6 7.98875 15.6H10.85V10.7C10.85 10.315 11.165 10 11.55 10H13.65C14.035 10 14.35 10.315 14.35 10.7V15.6H17.2113C17.8325 15.6 18.1475 16.3525 17.7056 16.7944Z" fill="#ED1B34"/>
<mask id="mask0" mask-type="alpha" maskUnits="userSpaceOnUse" x="-4" y="0" width="32" height="32">
<path d="M28 32L-4 0H28V32Z" fill="#C4C4C4"/>
</mask>
<g mask="url(#mask0)">
<path d="M23.52 12.9138C23.6994 12.4456 23.8 11.9338 23.8 11.4C23.8 9.08125 21.9187 7.2 19.6 7.2C18.7381 7.2 17.9331 7.4625 17.2681 7.90875C16.0562 5.80875 13.7944 4.4 11.2 4.4C7.3325 4.4 4.2 7.5325 4.2 11.4C4.2 11.5181 4.20437 11.6363 4.20875 11.7544C1.75875 12.6163 0 14.9525 0 17.7C0 21.1781 2.82187 24 6.3 24H22.4C25.4931 24 28 21.4931 28 18.4C28 15.6919 26.075 13.43 23.52 12.9138ZM17.7056 16.7944L13.0944 21.4056C12.8231 21.6769 12.3769 21.6769 12.1056 21.4056L7.49438 16.7944C7.0525 16.3525 7.3675 15.6 7.98875 15.6H10.85V10.7C10.85 10.315 11.165 10 11.55 10H13.65C14.035 10 14.35 10.315 14.35 10.7V15.6H17.2113C17.8325 15.6 18.1475 16.3525 17.7056 16.7944Z" fill="#FF5F5E"/>
</g>
</g>
</g>
<defs>
<clipPath id="clip1">
<rect width="28" height="28" fill="white"/>
</clipPath>
</defs>



<defs>
<clipPath id="clip0">
<rect width="28" height="28" fill="white"/>
</clipPath>
</defs>
</svg>
