<svg width="28" height="28" viewBox="0 0 28 28" fill="none" xmlns="http://www.w3.org/2000/svg">
	<style>
		.hover{opacity:0;}
		
		
	</style>
	<g class="hover">
<mask id="mask2" mask-type="alpha" maskUnits="userSpaceOnUse" x="0" y="1" width="28" height="26">
<path d="M25.5391 8.31904H23.8207C22.3593 4.8489 19.1412 2.3271 15.4364 1.84546C11.765 1.35601 8.15768 2.76914 5.7977 5.61376C5.10393 6.4501 4.55361 7.35933 4.15067 8.31904H2.46094C1.10392 8.31904 0 9.42297 0 10.78V14.0612C0 15.4182 1.10392 16.5222 2.46094 16.5222H5.82974L5.47728 15.4463C4.45107 12.3124 5.02868 9.11048 7.06103 6.66157C9.05816 4.25428 12.1079 3.06308 15.2233 3.47165C18.5181 3.90084 21.3779 6.23091 22.5111 9.40929L22.518 9.42772C22.7006 9.91318 22.8288 10.4123 22.9025 10.9258C23.1484 12.4599 23.0082 14.0147 22.4979 15.4223L22.4943 15.4321C21.2277 19.0283 17.821 21.444 14.016 21.444C12.6501 21.444 11.5391 22.548 11.5391 23.905C11.5391 25.262 12.643 26.3659 14 26.3659C15.357 26.3659 16.4609 25.262 16.4609 23.905V22.7987C19.7364 22.0201 22.4876 19.6983 23.81 16.5221H25.5391C26.8961 16.5221 28 15.4182 28 14.0612V10.7799C28 9.42291 26.8961 8.31904 25.5391 8.31904Z" fill="black"/>
<path d="M6.61719 18.1628V19.8034H14C18.0711 19.8034 21.3828 16.4917 21.3828 12.4206C21.3828 8.34951 18.0711 5.0378 14 5.0378C9.9289 5.0378 6.61719 8.34951 6.61719 12.4206C6.61719 14.0805 7.17473 15.6842 8.19372 16.9812C7.99586 17.6725 7.3646 18.1628 6.61719 18.1628ZM16.4609 11.6003H18.1016V13.2409H16.4609V11.6003ZM13.1797 11.6003H14.8203V13.2409H13.1797V11.6003ZM9.89844 11.6003H11.5391V13.2409H9.89844V11.6003Z" fill="black"/>
</mask>
<g mask="url(#mask2)">
<path d="M25.5391 8.31904H23.8207C22.3593 4.8489 19.1412 2.3271 15.4364 1.84546C11.765 1.35601 8.15768 2.76914 5.7977 5.61376C5.10393 6.4501 4.55361 7.35933 4.15067 8.31904H2.46094C1.10392 8.31904 0 9.42297 0 10.78V14.0612C0 15.4182 1.10392 16.5222 2.46094 16.5222H5.82974L5.47728 15.4463C4.45107 12.3124 5.02868 9.11048 7.06103 6.66157C9.05816 4.25428 12.1079 3.06308 15.2233 3.47165C18.5181 3.90084 21.3779 6.23091 22.5111 9.40929L22.518 9.42772C22.7006 9.91318 22.8288 10.4123 22.9025 10.9258C23.1484 12.4599 23.0082 14.0147 22.4979 15.4223L22.4943 15.4321C21.2277 19.0283 17.821 21.444 14.016 21.444C12.6501 21.444 11.5391 22.548 11.5391 23.905C11.5391 25.262 12.643 26.3659 14 26.3659C15.357 26.3659 16.4609 25.262 16.4609 23.905V22.7987C19.7364 22.0201 22.4876 19.6983 23.81 16.5221H25.5391C26.8961 16.5221 28 15.4182 28 14.0612V10.7799C28 9.42291 26.8961 8.31904 25.5391 8.31904Z" fill="#FF5F5E"/>
<path d="M6.61719 18.1628V19.8034H14C18.0711 19.8034 21.3828 16.4917 21.3828 12.4206C21.3828 8.34951 18.0711 5.0378 14 5.0378C9.9289 5.0378 6.61719 8.34951 6.61719 12.4206C6.61719 14.0805 7.17473 15.6842 8.19372 16.9812C7.99586 17.6725 7.3646 18.1628 6.61719 18.1628ZM16.4609 11.6003H18.1016V13.2409H16.4609V11.6003ZM13.1797 11.6003H14.8203V13.2409H13.1797V11.6003ZM9.89844 11.6003H11.5391V13.2409H9.89844V11.6003Z" fill="#FF5F5E"/>
<path d="M-1.05005 -1.05015L28.7014 28.7013L-1.05006 28.7013L-1.05005 -1.05015Z" fill="#ED1B34"/>
</g>
</g>

<g class="default">
<mask id="mask1" mask-type="alpha" maskUnits="userSpaceOnUse" x="0" y="1" width="28" height="26">
<path d="M25.5391 8.31904H23.8207C22.3593 4.8489 19.1412 2.3271 15.4364 1.84546C11.765 1.35601 8.15768 2.76914 5.7977 5.61376C5.10393 6.4501 4.55361 7.35933 4.15067 8.31904H2.46094C1.10392 8.31904 0 9.42297 0 10.78V14.0612C0 15.4182 1.10392 16.5222 2.46094 16.5222H5.82974L5.47728 15.4463C4.45107 12.3124 5.02868 9.11048 7.06103 6.66157C9.05816 4.25428 12.1079 3.06308 15.2233 3.47165C18.5181 3.90084 21.3779 6.23091 22.5111 9.40929L22.518 9.42772C22.7006 9.91318 22.8288 10.4123 22.9025 10.9258C23.1484 12.4599 23.0082 14.0147 22.4979 15.4223L22.4943 15.4321C21.2277 19.0283 17.821 21.444 14.016 21.444C12.6501 21.444 11.5391 22.548 11.5391 23.905C11.5391 25.262 12.643 26.3659 14 26.3659C15.357 26.3659 16.4609 25.262 16.4609 23.905V22.7987C19.7364 22.0201 22.4876 19.6983 23.81 16.5221H25.5391C26.8961 16.5221 28 15.4182 28 14.0612V10.7799C28 9.42291 26.8961 8.31904 25.5391 8.31904Z" fill="black"/>
<path d="M6.61719 18.1628V19.8034H14C18.0711 19.8034 21.3828 16.4917 21.3828 12.4206C21.3828 8.34951 18.0711 5.0378 14 5.0378C9.9289 5.0378 6.61719 8.34951 6.61719 12.4206C6.61719 14.0805 7.17473 15.6842 8.19372 16.9812C7.99586 17.6725 7.3646 18.1628 6.61719 18.1628ZM16.4609 11.6003H18.1016V13.2409H16.4609V11.6003ZM13.1797 11.6003H14.8203V13.2409H13.1797V11.6003ZM9.89844 11.6003H11.5391V13.2409H9.89844V11.6003Z" fill="black"/>
</mask>
<g mask="url(#mask1)">
<path d="M25.5391 8.31904H23.8207C22.3593 4.8489 19.1412 2.3271 15.4364 1.84546C11.765 1.35601 8.15768 2.76914 5.7977 5.61376C5.10393 6.4501 4.55361 7.35933 4.15067 8.31904H2.46094C1.10392 8.31904 0 9.42297 0 10.78V14.0612C0 15.4182 1.10392 16.5222 2.46094 16.5222H5.82974L5.47728 15.4463C4.45107 12.3124 5.02868 9.11048 7.06103 6.66157C9.05816 4.25428 12.1079 3.06308 15.2233 3.47165C18.5181 3.90084 21.3779 6.23091 22.5111 9.40929L22.518 9.42772C22.7006 9.91318 22.8288 10.4123 22.9025 10.9258C23.1484 12.4599 23.0082 14.0147 22.4979 15.4223L22.4943 15.4321C21.2277 19.0283 17.821 21.444 14.016 21.444C12.6501 21.444 11.5391 22.548 11.5391 23.905C11.5391 25.262 12.643 26.3659 14 26.3659C15.357 26.3659 16.4609 25.262 16.4609 23.905V22.7987C19.7364 22.0201 22.4876 19.6983 23.81 16.5221H25.5391C26.8961 16.5221 28 15.4182 28 14.0612V10.7799C28 9.42291 26.8961 8.31904 25.5391 8.31904Z" fill="#9FA4AB"/>
<path d="M6.61719 18.1628V19.8034H14C18.0711 19.8034 21.3828 16.4917 21.3828 12.4206C21.3828 8.34951 18.0711 5.0378 14 5.0378C9.9289 5.0378 6.61719 8.34951 6.61719 12.4206C6.61719 14.0805 7.17473 15.6842 8.19372 16.9812C7.99586 17.6725 7.3646 18.1628 6.61719 18.1628ZM16.4609 11.6003H18.1016V13.2409H16.4609V11.6003ZM13.1797 11.6003H14.8203V13.2409H13.1797V11.6003ZM9.89844 11.6003H11.5391V13.2409H9.89844V11.6003Z" fill="#9FA4AB"/>
<path d="M-1.05005 -1.05015L28.7014 28.7013L-1.05006 28.7013L-1.05005 -1.05015Z" fill="#878D96"/>
</g>
</g>
</svg>
