<svg width="28" height="28" viewBox="0 0 28 28" fill="none" xmlns="http://www.w3.org/2000/svg">
<style>.hover{
	opacity:0;
	}</style>
<g class="default">
<path fill-rule="evenodd" clip-rule="evenodd" d="M3 9C3 5.68629 5.68629 3 9 3H19C22.3137 3 25 5.68629 25 9V19C25 22.3137 22.3137 25 19 25H9C5.68629 25 3 22.3137 3 19V9ZM20.4167 9.25H7.58333V7.75H20.4167V9.25ZM14.5046 9.77838L14.0001 9.31974L13.4956 9.77838L7.99558 14.7784L9.00459 15.8883L13.2501 12.0287V21.3333H14.7501V12.0287L18.9956 15.8883L20.0046 14.7784L14.5046 9.77838Z" fill="#878D96"/>
<mask id="mask6" mask-type="alpha" maskUnits="userSpaceOnUse" x="0" y="0" width="28" height="28">
<path d="M28 28L0 0H28V28Z" fill="#C4C4C4"/>
</mask>
<g mask="url(#mask6)">
<path fill-rule="evenodd" clip-rule="evenodd" d="M3 9C3 5.68629 5.68629 3 9 3H19C22.3137 3 25 5.68629 25 9V19C25 22.3137 22.3137 25 19 25H9C5.68629 25 3 22.3137 3 19V9ZM20.4167 9.25H7.58333V7.75H20.4167V9.25ZM14.5046 9.77838L14.0001 9.31974L13.4956 9.77838L7.99558 14.7784L9.00459 15.8883L13.2501 12.0287V21.3333H14.7501V12.0287L18.9956 15.8883L20.0046 14.7784L14.5046 9.77838Z" fill="#9FA4AB"/>
</g>
</g>

<g class="hover">
<path fill-rule="evenodd" clip-rule="evenodd" d="M3 9C3 5.68629 5.68629 3 9 3H19C22.3137 3 25 5.68629 25 9V19C25 22.3137 22.3137 25 19 25H9C5.68629 25 3 22.3137 3 19V9ZM20.4167 9.25H7.58333V7.75H20.4167V9.25ZM14.5046 9.77838L14.0001 9.31974L13.4956 9.77838L7.99558 14.7784L9.00459 15.8883L13.2501 12.0287V21.3333H14.7501V12.0287L18.9956 15.8883L20.0046 14.7784L14.5046 9.77838Z" fill="#ED1B34"/>
<mask id="mask7" mask-type="alpha" maskUnits="userSpaceOnUse" x="0" y="0" width="28" height="28">
<path d="M28 28L0 0H28V28Z" fill="#C4C4C4"/>
</mask>
<g mask="url(#mask7)">
<path fill-rule="evenodd" clip-rule="evenodd" d="M3 9C3 5.68629 5.68629 3 9 3H19C22.3137 3 25 5.68629 25 9V19C25 22.3137 22.3137 25 19 25H9C5.68629 25 3 22.3137 3 19V9ZM20.4167 9.25H7.58333V7.75H20.4167V9.25ZM14.5046 9.77838L14.0001 9.31974L13.4956 9.77838L7.99558 14.7784L9.00459 15.8883L13.2501 12.0287V21.3333H14.7501V12.0287L18.9956 15.8883L20.0046 14.7784L14.5046 9.77838Z" fill="#FF5F5E"/>
</g>
</g>
</svg>
