<svg width="36" height="36" viewBox="0 0 36 36" fill="none" xmlns="http://www.w3.org/2000/svg">
<mask id="mask0" mask-type="alpha" maskUnits="userSpaceOnUse" x="4" y="5" width="28" height="26">
<path d="M29.5391 12.319H27.8207C26.3593 8.8489 23.1412 6.3271 19.4364 5.84546C15.765 5.35601 12.1577 6.76914 9.7977 9.61376C9.10393 10.4501 8.55361 11.3593 8.15067 12.319H6.46094C5.10392 12.319 4 13.423 4 14.78V18.0612C4 19.4182 5.10392 20.5222 6.46094 20.5222H9.82974L9.47728 19.4463C8.45107 16.3124 9.02868 13.1105 11.061 10.6616C13.0582 8.25428 16.1079 7.06308 19.2233 7.47165C22.5181 7.90084 25.3779 10.2309 26.5111 13.4093L26.518 13.4277C26.7006 13.9132 26.8288 14.4123 26.9025 14.9258C27.1484 16.4599 27.0082 18.0147 26.4979 19.4223L26.4943 19.4321C25.2277 23.0283 21.821 25.444 18.016 25.444C16.6501 25.444 15.5391 26.548 15.5391 27.905C15.5391 29.262 16.643 30.3659 18 30.3659C19.357 30.3659 20.4609 29.262 20.4609 27.905V26.7987C23.7364 26.0201 26.4876 23.6983 27.81 20.5221H29.5391C30.8961 20.5221 32 19.4182 32 18.0612V14.7799C32 13.4229 30.8961 12.319 29.5391 12.319V12.319Z" fill="black"/>
<path d="M10.6172 22.1628V23.8034H18C22.0711 23.8034 25.3828 20.4917 25.3828 16.4206C25.3828 12.3495 22.0711 9.0378 18 9.0378C13.9289 9.0378 10.6172 12.3495 10.6172 16.4206C10.6172 18.0805 11.1747 19.6842 12.1937 20.9812C11.9959 21.6725 11.3646 22.1628 10.6172 22.1628ZM20.4609 15.6003H22.1016V17.2409H20.4609V15.6003ZM17.1797 15.6003H18.8203V17.2409H17.1797V15.6003ZM13.8984 15.6003H15.5391V17.2409H13.8984V15.6003Z" fill="black"/>
</mask>
<g mask="url(#mask0)">
<path d="M29.5391 12.319H27.8207C26.3593 8.8489 23.1412 6.3271 19.4364 5.84546C15.765 5.35601 12.1577 6.76914 9.7977 9.61376C9.10393 10.4501 8.55361 11.3593 8.15067 12.319H6.46094C5.10392 12.319 4 13.423 4 14.78V18.0612C4 19.4182 5.10392 20.5222 6.46094 20.5222H9.82974L9.47728 19.4463C8.45107 16.3124 9.02868 13.1105 11.061 10.6616C13.0582 8.25428 16.1079 7.06308 19.2233 7.47165C22.5181 7.90084 25.3779 10.2309 26.5111 13.4093L26.518 13.4277C26.7006 13.9132 26.8288 14.4123 26.9025 14.9258C27.1484 16.4599 27.0082 18.0147 26.4979 19.4223L26.4943 19.4321C25.2277 23.0283 21.821 25.444 18.016 25.444C16.6501 25.444 15.5391 26.548 15.5391 27.905C15.5391 29.262 16.643 30.3659 18 30.3659C19.357 30.3659 20.4609 29.262 20.4609 27.905V26.7987C23.7364 26.0201 26.4876 23.6983 27.81 20.5221H29.5391C30.8961 20.5221 32 19.4182 32 18.0612V14.7799C32 13.4229 30.8961 12.319 29.5391 12.319V12.319Z" fill="#FF5F5E"/>
<path d="M10.6172 22.1628V23.8034H18C22.0711 23.8034 25.3828 20.4917 25.3828 16.4206C25.3828 12.3495 22.0711 9.0378 18 9.0378C13.9289 9.0378 10.6172 12.3495 10.6172 16.4206C10.6172 18.0805 11.1747 19.6842 12.1937 20.9812C11.9959 21.6725 11.3646 22.1628 10.6172 22.1628ZM20.4609 15.6003H22.1016V17.2409H20.4609V15.6003ZM17.1797 15.6003H18.8203V17.2409H17.1797V15.6003ZM13.8984 15.6003H15.5391V17.2409H13.8984V15.6003Z" fill="#FF5F5E"/>
<path d="M2.94995 2.94986L32.7014 32.7013L2.94994 32.7013L2.94995 2.94986Z" fill="#ED1B34"/>
</g>
</svg>
