<svg width="36" height="36" viewBox="0 0 36 36" fill="none" xmlns="http://www.w3.org/2000/svg">
<g class="default">
<g clip-path="url(#clip0)">
<path d="M9.83333 6.33334C8.5465 6.33334 7.5 7.37984 7.5 8.66668V22.6667C7.5 23.9535 8.5465 25 9.83333 25H13.9167L18 29.6667L22.0833 25H26.1667C27.4535 25 28.5 23.9535 28.5 22.6667V8.66668C28.5 7.37984 27.4535 6.33334 26.1667 6.33334H9.83333ZM14.8523 20.3182H12.7523V18.2193L18.56 12.421L20.6577 14.5198L14.8523 20.3182V20.3182ZM21.6458 13.5317L19.5482 11.4328L21.1477 9.83334L23.2477 11.9322L21.6458 13.5317V13.5317Z" fill="#ED1B34"/>
<mask id="mask0" mask-type="alpha" maskUnits="userSpaceOnUse" x="-1" y="4" width="33" height="33">
<path d="M31.9999 36.6667L-0.666748 4H31.9999V36.6667Z" fill="#C4C4C4"/>
</mask>
<g mask="url(#mask0)">
<path d="M9.83333 6.33334C8.5465 6.33334 7.5 7.37984 7.5 8.66668V22.6667C7.5 23.9535 8.5465 25 9.83333 25H13.9167L18 29.6667L22.0833 25H26.1667C27.4535 25 28.5 23.9535 28.5 22.6667V8.66668C28.5 7.37984 27.4535 6.33334 26.1667 6.33334H9.83333ZM14.8523 20.3182H12.7523V18.2193L18.56 12.421L20.6577 14.5198L14.8523 20.3182V20.3182ZM21.6458 13.5317L19.5482 11.4328L21.1477 9.83334L23.2477 11.9322L21.6458 13.5317V13.5317Z" fill="#FF5F5E"/>
</g>
</g>
<defs>
<clipPath id="clip0">
<rect width="28" height="28" fill="white" transform="translate(4 4)"/>
</clipPath>
</defs>
</g>
</svg>
